<?xml version="1.0" ?><svg enable-background="new 0 0 32 32" version="1.1" viewBox="0 0 32 32" xml:space="preserve" xmlns="http://www.w3.org/2000/svg" xmlns:xlink="http://www.w3.org/1999/xlink"><g id="_x33_0"/><g id="_x32_9"/><g id="_x32_8"/><g id="_x32_7"/><g id="_x32_6"/><g id="_x32_5"/><g id="_x32_4"/><g id="_x32_3"/><g id="_x32_2"/><g id="_x32_1"/><g id="_x32_0"/><g id="_x31_8"/><g id="_x31_7"/><g id="_x31_6"/><g id="_x31_5"/><g id="_x31_4"/><g id="_x31_3"/><g id="_x31_2"/><g id="_x31_1"/><g id="_x31_0"/><g id="_x39_"/><g id="_x38_"/><g id="_x37_"/><g id="_x36_"/><g id="_x35_"/><g id="_x34_"/><g id="_x33_"/><g id="_x32_"/><g id="_x31_"><path d="M22,3H10c-3.86,0-7,3.14-7,7v12c0,3.86,3.14,7,7,7h12c3.86,0,7-3.14,7-7V10C29,6.14,25.86,3,22,3z M27,22   c0,2.757-2.243,5-5,5H10c-2.757,0-5-2.243-5-5V10c0-2.757,2.243-5,5-5h12c2.757,0,5,2.243,5,5V22z M16,10c-3.309,0-6,2.691-6,6   s2.691,6,6,6s6-2.691,6-6S19.309,10,16,10z M16,20c-2.206,0-4-1.794-4-4s1.794-4,4-4s4,1.794,4,4S18.206,20,16,20z M24,9.5   c0,0.828-0.672,1.5-1.5,1.5S21,10.328,21,9.5S21.672,8,22.5,8S24,8.672,24,9.5z"/></g><g id="Guides"/></svg>