<?xml version="1.0" encoding="iso-8859-1"?>
<!-- Uploaded to: SVG Repo, www.svgrepo.com, Generator: SVG Repo Mixer Tools -->
<svg height="800px" width="800px" version="1.1" id="Capa_1" xmlns="http://www.w3.org/2000/svg" xmlns:xlink="http://www.w3.org/1999/xlink" 
	 viewBox="0 0 14.543 14.543" xml:space="preserve">
<g>
	<path style="fill:#030104;" d="M14.543,11.448L12.76,5.556c-0.314-0.778-0.91-1.426-1.697-1.426h-0.152V3.426H9.198l1.24-0.779
		c0.123-0.077,0.189-0.22,0.166-0.363c-0.023-0.143-0.129-0.259-0.27-0.294L3.762,0.332C3.569,0.284,3.371,0.4,3.323,0.594
		c-0.049,0.193,0.068,0.39,0.262,0.439l5.751,1.451l-1.5,0.942H3.673V4.13H1.426C0.638,4.13,0,4.768,0,5.556v5.892
		c0,0.67,0.463,1.228,1.085,1.381c-0.04,0.11-0.065,0.228-0.065,0.352c0,0.575,0.465,1.041,1.041,1.041
		c0.413,0,0.766-0.243,0.934-0.592c0.168,0.349,0.522,0.592,0.935,0.592c0.575,0,1.04-0.466,1.04-1.041
		c0-0.107-0.021-0.209-0.051-0.306h4.324c-0.029,0.097-0.051,0.198-0.051,0.306c0,0.575,0.465,1.041,1.041,1.041
		c0.412,0,0.766-0.243,0.934-0.592c0.168,0.349,0.521,0.592,0.936,0.592c0.574,0,1.039-0.466,1.039-1.041
		c0-0.107-0.02-0.209-0.051-0.306h0.025C13.905,12.875,14.543,12.236,14.543,11.448z M11.784,5.688l0.996,3.438H9.714V5.688H11.784z
		 M0.929,5.688h2.412v3.438H0.929V5.688z M9.02,9.125H3.985V5.687H9.02V9.125z"/>
</g>
</svg>